<?xml version="1.0" encoding="UTF-8"?>
<svg xmlns="http://www.w3.org/2000/svg" xmlns:xlink="http://www.w3.org/1999/xlink" width="16pt" height="16pt" viewBox="0 0 16 16" version="1.1">
<g id="surface1">
<path style="fill-rule:nonzero;fill:rgb(70.196078%,70.196078%,70.196078%);fill-opacity:1;stroke-width:1;stroke-linecap:butt;stroke-linejoin:miter;stroke:rgb(70.196078%,70.196078%,70.196078%);stroke-opacity:1;stroke-miterlimit:10;" d="M 39.003906 1.992188 L 40.996094 1.992188 L 40.996094 21.992188 L 39.003906 21.992188 Z M 39.003906 1.992188 " transform="matrix(0.2,0,0,0.2,0,0)"/>
<path style=" stroke:none;fill-rule:nonzero;fill:rgb(73.72549%,53.333333%,28.235294%);fill-opacity:1;" d="M 11.601562 7.601562 C 11.601562 9.589844 9.988281 11.199219 8 11.199219 C 6.011719 11.199219 4.398438 9.589844 4.398438 7.601562 C 4.398438 5.613281 6.011719 4 8 4 C 9.988281 4 11.601562 5.613281 11.601562 7.601562 Z M 11.601562 7.601562 "/>
<path style=" stroke:none;fill-rule:nonzero;fill:rgb(73.72549%,53.333333%,28.235294%);fill-opacity:1;" d="M 10.601562 19 L 5.398438 19 C 4.078125 19 3 17.921875 3 16.601562 L 3 13.398438 C 3 12.078125 4.078125 11 5.398438 11 L 10.601562 11 C 11.921875 11 13 12.078125 13 13.398438 L 13 16.601562 C 13 17.921875 11.921875 19 10.601562 19 Z M 10.601562 19 "/>
<path style="fill-rule:nonzero;fill:rgb(0%,0%,0%);fill-opacity:1;stroke-width:1;stroke-linecap:butt;stroke-linejoin:miter;stroke:rgb(0%,0%,0%);stroke-opacity:1;stroke-miterlimit:10;" d="M 34.492188 30 C 34.492188 31.386719 33.378906 32.5 31.992188 32.5 C 30.625 32.5 29.492188 31.386719 29.492188 30 C 29.492188 28.613281 30.625 27.5 31.992188 27.5 C 33.378906 27.5 34.492188 28.613281 34.492188 30 Z M 34.492188 30 " transform="matrix(0.2,0,0,0.2,0,0)"/>
<path style="fill-rule:nonzero;fill:rgb(0%,0%,0%);fill-opacity:1;stroke-width:1;stroke-linecap:butt;stroke-linejoin:miter;stroke:rgb(0%,0%,0%);stroke-opacity:1;stroke-miterlimit:10;" d="M 50.507812 30 C 50.507812 31.386719 49.375 32.5 48.007812 32.5 C 46.621094 32.5 45.507812 31.386719 45.507812 30 C 45.507812 28.613281 46.621094 27.5 48.007812 27.5 C 49.375 27.5 50.507812 28.613281 50.507812 30 Z M 50.507812 30 " transform="matrix(0.2,0,0,0.2,0,0)"/>
<path style="fill-rule:nonzero;fill:rgb(92.941176%,10.980392%,14.117647%);fill-opacity:1;stroke-width:1;stroke-linecap:butt;stroke-linejoin:miter;stroke:rgb(0%,0%,0%);stroke-opacity:1;stroke-miterlimit:10;" d="M 43.007812 48.007812 L 36.992188 48.007812 C 35.898438 48.007812 35 47.109375 35 45.996094 C 35 44.902344 35.898438 44.003906 36.992188 44.003906 L 43.007812 44.003906 C 44.101562 44.003906 45 44.902344 45 45.996094 C 45 47.109375 44.101562 48.007812 43.007812 48.007812 Z M 43.007812 48.007812 " transform="matrix(0.2,0,0,0.2,0,0)"/>
<path style="fill-rule:nonzero;fill:rgb(70.196078%,70.196078%,70.196078%);fill-opacity:1;stroke-width:1;stroke-linecap:butt;stroke-linejoin:miter;stroke:rgb(70.196078%,70.196078%,70.196078%);stroke-opacity:1;stroke-miterlimit:10;" d="M 30 10 L 50 10 L 50 11.992188 L 30 11.992188 Z M 30 10 " transform="matrix(0.2,0,0,0.2,0,0)"/>
<path style=" stroke:none;fill-rule:nonzero;fill:rgb(0%,100%,0%);fill-opacity:1;" d="M 6.101562 2.199219 C 6.101562 2.476562 5.875 2.699219 5.601562 2.699219 C 5.324219 2.699219 5.101562 2.476562 5.101562 2.199219 C 5.101562 1.925781 5.324219 1.699219 5.601562 1.699219 C 5.875 1.699219 6.101562 1.925781 6.101562 2.199219 Z M 6.101562 2.199219 "/>
<path style=" stroke:none;fill-rule:nonzero;fill:rgb(0%,0%,100%);fill-opacity:1;" d="M 10.898438 2.199219 C 10.898438 2.476562 10.675781 2.699219 10.398438 2.699219 C 10.125 2.699219 9.898438 2.476562 9.898438 2.199219 C 9.898438 1.925781 10.125 1.699219 10.398438 1.699219 C 10.675781 1.699219 10.898438 1.925781 10.898438 2.199219 Z M 10.898438 2.199219 "/>
<path style=" stroke:none;fill-rule:nonzero;fill:rgb(98.823529%,93.333333%,12.941176%);fill-opacity:1;" d="M 8.5 0.601562 C 8.5 0.875 8.277344 1.101562 8 1.101562 C 7.722656 1.101562 7.5 0.875 7.5 0.601562 C 7.5 0.324219 7.722656 0.101562 8 0.101562 C 8.277344 0.101562 8.5 0.324219 8.5 0.601562 Z M 8.5 0.601562 "/>
<path style=" stroke:none;fill-rule:nonzero;fill:rgb(73.72549%,53.333333%,28.235294%);fill-opacity:1;" d="M 3.320312 11.5 C 2.960938 11.640625 2.558594 11.441406 2.441406 11.078125 L 0.679688 6.199219 C 0.539062 5.839844 0.738281 5.441406 1.101562 5.300781 C 1.460938 5.160156 1.859375 5.359375 1.980469 5.71875 L 3.71875 10.601562 C 3.859375 10.960938 3.679688 11.378906 3.320312 11.5 Z M 3.320312 11.5 "/>
<path style=" stroke:none;fill-rule:nonzero;fill:rgb(73.72549%,53.333333%,28.235294%);fill-opacity:1;" d="M 12.679688 11.5 C 12.320312 11.359375 12.121094 10.960938 12.261719 10.601562 L 14.039062 5.71875 C 14.179688 5.359375 14.578125 5.160156 14.941406 5.300781 C 15.300781 5.441406 15.5 5.839844 15.359375 6.199219 L 13.578125 11.078125 C 13.441406 11.441406 13.039062 11.640625 12.679688 11.5 Z M 12.679688 11.5 "/>
</g>
</svg>
